<?xml version="1.0" encoding="UTF-8"?>
<svg version="1.1" xmlns="http://www.w3.org/2000/svg" width="211" height="46">
<path d="M0 0 C1.67542976 0.28604898 3.34385343 0.61781233 5 1 C5.33 4.3 5.66 7.6 6 11 C6.73605469 10.2059375 7.47210938 9.411875 8.23046875 8.59375 C9.21546474 7.56184944 10.20117983 6.53063494 11.1875 5.5 C11.67025391 4.97535156 12.15300781 4.45070313 12.65039062 3.91015625 C15.03318416 1.4474032 16.39747337 0.07233608 19.86328125 -0.34375 C20.56839844 -0.2303125 21.27351563 -0.116875 22 0 C22.33 0.66 22.66 1.32 23 2 C18.96476648 6.81123996 14.95532767 11.13242719 10 15 C14.11619836 19.91935902 18.40410362 24.52647956 23 29 C23.27972656 28.30777344 23.55945313 27.61554687 23.84765625 26.90234375 C27.57906824 17.79577879 31.59783166 8.80433669 36 0 C37.32 0 38.64 0 40 0 C40.21615967 0.51796143 40.43231934 1.03592285 40.6550293 1.56958008 C41.66409078 3.98462735 42.67571147 6.398594 43.6875 8.8125 C44.049646 9.6794751 44.41179199 10.5464502 44.78491211 11.43969727 C47.12061293 17.00289306 49.57547939 22.47771137 52.28515625 27.87109375 C53.12774846 30.38045306 52.72582003 31.51217133 52 34 C48.54173658 34.05789006 45.08359707 34.09355821 41.625 34.125 C40.64015625 34.14175781 39.6553125 34.15851562 38.640625 34.17578125 C37.69960937 34.18222656 36.75859375 34.18867187 35.7890625 34.1953125 C34.91975098 34.20578613 34.05043945 34.21625977 33.15478516 34.22705078 C31 34 31 34 29 32 C28.34 32.66 27.68 33.32 27 34 C22.51840541 34.60329158 20.58218525 34.39953889 16.8125 31.8125 C14.31859675 29.31859675 12.18097682 26.76257064 10 24 C8.68 23.01 7.36 22.02 6 21 C5.67 25.29 5.34 29.58 5 34 C3.35 34 1.7 34 0 34 C-1.48125044 31.03749913 -1.12990684 28.36087105 -1.1328125 25.05859375 C-1.13376923 24.37571793 -1.13472595 23.6928421 -1.13571167 22.98927307 C-1.13639223 21.54598905 -1.1345466 20.10270197 -1.13037109 18.65942383 C-1.12501282 16.44280172 -1.13032443 14.22638148 -1.13671875 12.00976562 C-1.13605811 10.60937455 -1.13477723 9.2089836 -1.1328125 7.80859375 C-1.13168457 6.52782959 -1.13055664 5.24706543 -1.12939453 3.92749023 C-1 1 -1 1 0 0 Z M37 10 C35.82905995 12.7899439 34.66309073 15.58178597 33.5 18.375 C33.16613281 19.1690625 32.83226562 19.963125 32.48828125 20.78125 C32.01455078 21.92207031 32.01455078 21.92207031 31.53125 23.0859375 C31.23798828 23.7876709 30.94472656 24.4894043 30.64257812 25.21240234 C29.88724219 26.99708561 29.88724219 26.99708561 30 29 C35.28 29 40.56 29 46 29 C44.88340256 26.0174309 43.75724065 23.03912472 42.625 20.0625 C42.30789062 19.21236328 41.99078125 18.36222656 41.6640625 17.48632812 C41.3546875 16.67744141 41.0453125 15.86855469 40.7265625 15.03515625 C40.44377441 14.2862915 40.16098633 13.53742676 39.86962891 12.76586914 C39.12878157 10.81238001 39.12878157 10.81238001 37 10 Z " fill="#3965CC" transform="translate(61,7)"/>
<path d="M0 0 C4.31035046 1.64610272 5.71642829 5.045105 7.94921875 8.9296875 C8.38685547 9.66316406 8.82449219 10.39664062 9.27539062 11.15234375 C10.08977552 12.51752638 10.89743192 13.88676198 11.69604492 15.26123047 C12.66490263 16.89175251 13.70964572 18.47657796 14.76171875 20.0546875 C15.09171875 13.4546875 15.42171875 6.8546875 15.76171875 0.0546875 C17.41171875 0.0546875 19.06171875 0.0546875 20.76171875 0.0546875 C22.66617201 1.95914076 21.89230737 5.33806287 21.89453125 7.86328125 C21.89596634 8.8861599 21.89596634 8.8861599 21.89743042 9.92970276 C21.89811214 11.37476697 21.89625844 12.81983422 21.89208984 14.26489258 C21.88674959 16.47939943 21.8920308 18.69370269 21.8984375 20.90820312 C21.89777656 22.30989628 21.89649506 23.71158931 21.89453125 25.11328125 C21.89340332 26.39517334 21.89227539 27.67706543 21.89111328 28.99780273 C21.76171875 32.0546875 21.76171875 32.0546875 20.76171875 34.0546875 C17.75283269 33.7339433 16.19985804 33.5258161 14.1015625 31.26953125 C13.63878906 30.51800781 13.17601562 29.76648438 12.69921875 28.9921875 C11.94705078 27.78369141 11.94705078 27.78369141 11.1796875 26.55078125 C9.87287397 24.25035744 8.6687448 21.93325777 7.51171875 19.5546875 C6.17838542 16.01302083 6.17838542 16.01302083 3.76171875 15.0546875 C3.43171875 20.6646875 3.10171875 26.2746875 2.76171875 32.0546875 C1.44171875 32.7146875 0.12171875 33.3746875 -1.23828125 34.0546875 C-3.23828125 32.0546875 -3.23828125 32.0546875 -3.48120117 28.99780273 C-3.47503784 27.0749646 -3.47503784 27.0749646 -3.46875 25.11328125 C-3.46829178 24.43040543 -3.46783356 23.7475296 -3.46736145 23.04396057 C-3.46434016 21.60065981 -3.45645747 20.15736228 -3.4440918 18.71411133 C-3.42582455 16.49744197 -3.42358218 14.28118992 -3.42382812 12.06445312 C-3.38177701 0.08262631 -3.38177701 0.08262631 0 0 Z " fill="#E4B572" transform="translate(155.23828125,6.9453125)"/>
<path d="M0 0 C1.65 0.33 3.3 0.66 5 1 C5.33 4.63 5.66 8.26 6 12 C6.66 11.01 7.32 10.02 8 9 C8.66 9 9.32 9 10 9 C10 8.34 10 7.68 10 7 C11.57421875 5.23828125 11.57421875 5.23828125 13.6875 3.3125 C14.37199219 2.66925781 15.05648437 2.02601562 15.76171875 1.36328125 C18 0 18 0 20.76953125 0.29296875 C21.50558594 0.52628906 22.24164063 0.75960938 23 1 C22.45619409 4.76544398 21.05869572 6.11096109 18.125 8.4375 C14.9118032 10.99264358 12.97028165 13.38781697 11 17 C11.86625 17.80824219 12.7325 18.61648437 13.625 19.44921875 C14.75065066 20.5279673 15.87561517 21.60743214 17 22.6875 C17.57234375 23.21794922 18.1446875 23.74839844 18.734375 24.29492188 C22.91606946 28.35216114 22.91606946 28.35216114 23.375 31.89453125 C23.25125 32.58933594 23.1275 33.28414062 23 34 C19.69881206 33.4194679 18.08865924 32.45131901 15.765625 30.05859375 C15.19199219 29.47529297 14.61835938 28.89199219 14.02734375 28.29101562 C13.44082031 27.67935547 12.85429687 27.06769531 12.25 26.4375 C11.64800781 25.82197266 11.04601562 25.20644531 10.42578125 24.57226562 C8.94365619 23.05485187 7.4709033 21.52829404 6 20 C5.67 24.29 5.34 28.58 5 33 C3.02 33.495 3.02 33.495 1 34 C-1 32 -1 32 -1.24291992 28.94311523 C-1.23675659 27.0202771 -1.23675659 27.0202771 -1.23046875 25.05859375 C-1.23001053 24.37571793 -1.22955231 23.6928421 -1.2290802 22.98927307 C-1.22605891 21.54597231 -1.21817622 20.10267478 -1.20581055 18.65942383 C-1.1875433 16.44275447 -1.18530093 14.22650242 -1.18554688 12.00976562 C-1.14742468 1.14742468 -1.14742468 1.14742468 0 0 Z " fill="#E9B573" transform="translate(183,7)"/>
<path d="M0 0 C1.67542976 0.28604898 3.34385343 0.61781233 5 1 C5.01981934 1.67579102 5.03963867 2.35158203 5.06005859 3.04785156 C5.15543238 6.11562044 5.26506165 9.18271998 5.375 12.25 C5.4059375 13.31347656 5.436875 14.37695312 5.46875 15.47265625 C5.50742187 16.49746094 5.54609375 17.52226562 5.5859375 18.578125 C5.6173584 19.52075195 5.6487793 20.46337891 5.68115234 21.43457031 C6.0110939 24.08926089 6.53958184 25.7677645 8 28 C10.78005632 29.02423128 12.29542796 29.2607575 15.08984375 28.2265625 C17.39677305 27.02544679 17.39677305 27.02544679 18.1875 23.5 C19.62258371 15.79118749 19.67952277 7.81795769 20 0 C21.65 0 23.3 0 25 0 C25.11719175 3.83307169 25.18758077 7.66567608 25.25 11.5 C25.30027344 13.11648437 25.30027344 13.11648437 25.3515625 14.765625 C25.43588158 21.6797899 24.79538807 26.15674067 21 32 C16.53314527 34.97790315 12.23619556 34.60653878 7 34 C2.96407077 31.89795353 1.34116312 29.35323347 -0.38476562 25.18676758 C-1.63213394 20.75316518 -1.34554713 16.19334711 -1.25 11.625 C-1.24484375 10.61566406 -1.2396875 9.60632813 -1.234375 8.56640625 C-1.15457058 1.15457058 -1.15457058 1.15457058 0 0 Z " fill="#3E72D8" transform="translate(29,7)"/>
<path d="M0 0 C1.67542976 0.28604898 3.34385343 0.61781233 5 1 C5.33 4.3 5.66 7.6 6 11 C6.73605469 10.2059375 7.47210938 9.411875 8.23046875 8.59375 C9.21546474 7.56184944 10.20117983 6.53063494 11.1875 5.5 C11.67025391 4.97535156 12.15300781 4.45070313 12.65039062 3.91015625 C15.03318416 1.4474032 16.39747337 0.07233608 19.86328125 -0.34375 C20.56839844 -0.2303125 21.27351563 -0.116875 22 0 C22.33 0.66 22.66 1.32 23 2 C18.96476648 6.81123996 14.95532767 11.13242719 10 15 C10.99 16.65 11.98 18.3 13 20 C12.34 20.99 11.68 21.98 11 23 C7.125 22.125 7.125 22.125 6 21 C5.67 25.29 5.34 29.58 5 34 C3.35 34 1.7 34 0 34 C-1.48125044 31.03749913 -1.12990684 28.36087105 -1.1328125 25.05859375 C-1.13376923 24.37571793 -1.13472595 23.6928421 -1.13571167 22.98927307 C-1.13639223 21.54598905 -1.1345466 20.10270197 -1.13037109 18.65942383 C-1.12501282 16.44280172 -1.13032443 14.22638148 -1.13671875 12.00976562 C-1.13605811 10.60937455 -1.13477723 9.2089836 -1.1328125 7.80859375 C-1.13168457 6.52782959 -1.13055664 5.24706543 -1.12939453 3.92749023 C-1 1 -1 1 0 0 Z " fill="#3678DF" transform="translate(61,7)"/>
<path d="M0 0 C1.98 0.495 1.98 0.495 4 1 C4 12.55 4 24.1 4 36 C10.6 36 17.2 36 24 36 C24.33 37.32 24.66 38.64 25 40 C23.28432208 41.71567792 21.02627265 41.13015825 18.6875 41.1328125 C17.61242187 41.13410156 16.53734375 41.13539062 15.4296875 41.13671875 C14.29789063 41.13285156 13.16609375 41.12898438 12 41.125 C10.86820313 41.12886719 9.73640625 41.13273437 8.5703125 41.13671875 C7.49523437 41.13542969 6.42015625 41.13414063 5.3125 41.1328125 C4.31863281 41.13168457 3.32476562 41.13055664 2.30078125 41.12939453 C0 41 0 41 -1 40 C-1.10106874 37.12735944 -1.13969672 34.27926372 -1.1328125 31.40625 C-1.13376923 30.54439087 -1.13472595 29.68253174 -1.13571167 28.79455566 C-1.1363935 26.96866788 -1.13453904 25.14277769 -1.13037109 23.31689453 C-1.12502286 20.51198922 -1.13031599 17.70724405 -1.13671875 14.90234375 C-1.13605797 13.13281214 -1.13477681 11.36328064 -1.1328125 9.59375 C-1.13483673 8.74897095 -1.13686096 7.90419189 -1.13894653 7.03381348 C-1.11495031 1.11495031 -1.11495031 1.11495031 0 0 Z " fill="#4986E6" transform="translate(2,0)"/>
<path d="M0 0 C1.65 0.33 3.3 0.66 5 1 C5 10.24 5 19.48 5 29 C9.62 29 14.24 29 19 29 C19.66 29.33 20.32 29.66 21 30 C20.67 31.32 20.34 32.64 20 34 C16.87507749 34.05791844 13.75029234 34.09356746 10.625 34.125 C9.73554687 34.14175781 8.84609375 34.15851562 7.9296875 34.17578125 C6.65351562 34.18544922 6.65351562 34.18544922 5.3515625 34.1953125 C4.17327881 34.21102295 4.17327881 34.21102295 2.97119141 34.22705078 C1 34 1 34 -1 32 C-1.24291992 28.94311523 -1.24291992 28.94311523 -1.23046875 25.05859375 C-1.23001053 24.37571793 -1.22955231 23.6928421 -1.2290802 22.98927307 C-1.22605891 21.54597231 -1.21817622 20.10267478 -1.20581055 18.65942383 C-1.1875433 16.44275447 -1.18530093 14.22650242 -1.18554688 12.00976562 C-1.14742468 1.14742468 -1.14742468 1.14742468 0 0 Z " fill="#E08D55" transform="translate(117,7)"/>
<path d="M0 0 C1.32 0 2.64 0 4 0 C5.29543103 3.04007685 6.58565977 6.08233552 7.875 9.125 C8.23980469 9.9809375 8.60460937 10.836875 8.98046875 11.71875 C10.8342619 16.1004429 12.58343133 20.45206901 14 25 C11.525 26.485 11.525 26.485 9 28 C6.69 22.39 4.38 16.78 2 11 C-0.72955384 16.97550976 -3.4446882 22.94794575 -6 29 C-6.33 28.01 -6.66 27.02 -7 26 C-6.67 25.34 -6.34 24.68 -6 24 C-6.66 24 -7.32 24 -8 24 C-9.07822271 20.7761276 -8.95991481 19.108421 -7.63671875 15.99609375 C-7.32669922 15.25552734 -7.01667969 14.51496094 -6.69726562 13.75195312 C-6.19743164 12.60629883 -6.19743164 12.60629883 -5.6875 11.4375 C-5.36587891 10.66986328 -5.04425781 9.90222656 -4.71289062 9.11132812 C-3.32135422 5.83393129 -1.98528316 2.97792474 0 0 Z " fill="#4A7DD9" transform="translate(97,7)"/>
<path d="M0 0 C1.67542976 0.28604898 3.34385343 0.61781233 5 1 C5.02469081 5.3782512 5.04285557 9.75646567 5.05493164 14.13476562 C5.05996514 15.62468166 5.06679242 17.11459274 5.07543945 18.60449219 C5.08754805 20.74415304 5.09323807 22.88374868 5.09765625 25.0234375 C5.10289307 26.31169434 5.10812988 27.59995117 5.11352539 28.92724609 C5 32 5 32 4 34 C0.125 33.125 0.125 33.125 -1 32 C-1.1002093 29.72052208 -1.13081303 27.43792865 -1.1328125 25.15625 C-1.13376923 24.47195923 -1.13472595 23.78766846 -1.13571167 23.0826416 C-1.1363933 21.63338123 -1.13454023 20.18411782 -1.13037109 18.73486328 C-1.12502252 16.50937072 -1.1303166 14.28407999 -1.13671875 12.05859375 C-1.13605797 10.65364539 -1.1347768 9.24869715 -1.1328125 7.84375 C-1.13168457 6.55662109 -1.13055664 5.26949219 -1.12939453 3.94335938 C-1 1 -1 1 0 0 Z " fill="#F1AD5E" transform="translate(141,7)"/>
<path d="M0 0 C2.4375 0.1875 2.4375 0.1875 5 1 C6.3125 3.0625 6.3125 3.0625 7 5 C6.01 5.495 6.01 5.495 5 6 C4.25248627 9.48254713 4.25248627 9.48254713 4 13 C4.33 13.33 4.66 13.66 5 14 C5.08631874 15.34267413 5.10706473 16.68974322 5.09765625 18.03515625 C5.09282227 19.24848633 5.09282227 19.24848633 5.08789062 20.48632812 C5.07951172 21.33646484 5.07113281 22.18660156 5.0625 23.0625 C5.05798828 23.91650391 5.05347656 24.77050781 5.04882812 25.65039062 C5.03700373 27.76695663 5.01906769 29.88348685 5 32 C3.68 32.66 2.36 33.32 1 34 C-1 32 -1 32 -1.24291992 28.94311523 C-1.23675659 27.0202771 -1.23675659 27.0202771 -1.23046875 25.05859375 C-1.23001053 24.37571793 -1.22955231 23.6928421 -1.2290802 22.98927307 C-1.22605891 21.54597231 -1.21817622 20.10267478 -1.20581055 18.65942383 C-1.1875433 16.44275447 -1.18530093 14.22650242 -1.18554688 12.00976562 C-1.14742468 1.14742468 -1.14742468 1.14742468 0 0 Z " fill="#F2C38A" transform="translate(153,7)"/>
<path d="M0 0 C1.65 0.33 3.3 0.66 5 1 C5 4.96 5 8.92 5 13 C4.34 12.01 3.68 11.02 3 10 C2.95875 11.27875 2.9175 12.5575 2.875 13.875 C2.85179687 14.59429687 2.82859375 15.31359375 2.8046875 16.0546875 C2.81668311 18.23863645 2.81668311 18.23863645 5 20 C5.1953125 23.2578125 5.1953125 23.2578125 5.125 27.125 C5.10695313 28.40632813 5.08890625 29.68765625 5.0703125 31.0078125 C5.04710938 31.99523437 5.02390625 32.98265625 5 34 C3.35 34 1.7 34 0 34 C-1.48125044 31.03749913 -1.12990684 28.36087105 -1.1328125 25.05859375 C-1.13376923 24.37571793 -1.13472595 23.6928421 -1.13571167 22.98927307 C-1.13639223 21.54598905 -1.1345466 20.10270197 -1.13037109 18.65942383 C-1.12501282 16.44280172 -1.13032443 14.22638148 -1.13671875 12.00976562 C-1.13605811 10.60937455 -1.13477723 9.2089836 -1.1328125 7.80859375 C-1.13168457 6.52782959 -1.13055664 5.24706543 -1.12939453 3.92749023 C-1 1 -1 1 0 0 Z " fill="#4071E1" transform="translate(61,7)"/>
<path d="M0 0 C0.99 0.33 1.98 0.66 3 1 C2.34 1 1.68 1 1 1 C1 13.21 1 25.42 1 38 C6.61 38 12.22 38 18 38 C18.33 38.99 18.66 39.98 19 41 C15.85418577 41.02888514 12.70840531 41.04675923 9.5625 41.0625 C8.66466797 41.07087891 7.76683594 41.07925781 6.84179688 41.08789062 C5.56079102 41.09272461 5.56079102 41.09272461 4.25390625 41.09765625 C3.46314697 41.10289307 2.6723877 41.10812988 1.85766602 41.11352539 C-0 41 -0 41 -1 40 C-1.10106874 37.12735944 -1.13969672 34.27926372 -1.1328125 31.40625 C-1.13376923 30.54439087 -1.13472595 29.68253174 -1.13571167 28.79455566 C-1.1363935 26.96866788 -1.13453904 25.14277769 -1.13037109 23.31689453 C-1.12502286 20.51198922 -1.13031599 17.70724405 -1.13671875 14.90234375 C-1.13605797 13.13281214 -1.13477681 11.36328064 -1.1328125 9.59375 C-1.13483673 8.74897095 -1.13686096 7.90419189 -1.13894653 7.03381348 C-1.11495031 1.11495031 -1.11495031 1.11495031 0 0 Z " fill="#3B7FEA" transform="translate(2,0)"/>
<path d="M0 0 C3 1 3 1 4.25 2.8125 C5 5 5 5 4 9 C-2.93 9 -9.86 9 -17 9 C-17.66 7.68 -18.32 6.36 -19 5 C-18 4 -18 4 -14.40234375 3.90234375 C-12.91403133 3.9090178 -11.42573568 3.92097817 -9.9375 3.9375 C-9.17888672 3.94201172 -8.42027344 3.94652344 -7.63867188 3.95117188 C-5.75908129 3.9629932 -3.87953101 3.98092922 -2 4 C-1.34 2.68 -0.68 1.36 0 0 Z " fill="#4C79DF" transform="translate(109,32)"/>
<path d="M0 0 C1.65 0.33 3.3 0.66 5 1 C5 7.27 5 13.54 5 20 C3.02 20.33 1.04 20.66 -1 21 C-1.02888146 17.68751813 -1.04675799 14.37506833 -1.0625 11.0625 C-1.07087891 10.11697266 -1.07925781 9.17144531 -1.08789062 8.19726562 C-1.09111328 7.29814453 -1.09433594 6.39902344 -1.09765625 5.47265625 C-1.10289307 4.64000244 -1.10812988 3.80734863 -1.11352539 2.94946289 C-1 1 -1 1 0 0 Z " fill="#4E76ED" transform="translate(29,7)"/>
<path d="M0 0 C1.32 0 2.64 0 4 0 C4.14505175 3.43705705 4.23398014 6.87333033 4.3125 10.3125 C4.35439453 11.28896484 4.39628906 12.26542969 4.43945312 13.27148438 C4.48526849 15.93793866 4.4882833 18.37713857 4 21 C1.48046875 23.16796875 1.48046875 23.16796875 -1 24 C-1.02887236 20.18751574 -1.04675492 16.3750593 -1.0625 12.5625 C-1.07087891 11.47388672 -1.07925781 10.38527344 -1.08789062 9.26367188 C-1.09111328 8.22919922 -1.09433594 7.19472656 -1.09765625 6.12890625 C-1.10289307 5.17056885 -1.10812988 4.21223145 -1.11352539 3.22485352 C-1 1 -1 1 0 0 Z " fill="#DFA964" transform="translate(117,7)"/>
<path d="M0 0 C2.68487165 2.68487165 2.25769449 4.06476981 2.265625 7.8125 C2.26820313 8.97007813 2.27078125 10.12765625 2.2734375 11.3203125 C2.26570312 12.53460938 2.25796875 13.74890625 2.25 15 C2.25773438 16.21429687 2.26546875 17.42859375 2.2734375 18.6796875 C2.27085937 19.83726563 2.26828125 20.99484375 2.265625 22.1875 C2.26336914 23.25355469 2.26111328 24.31960937 2.25878906 25.41796875 C2 28 2 28 0 30 C-1.3767748 27.2464504 -1.12969689 25.01159591 -1.1328125 21.93359375 C-1.13410156 20.72638672 -1.13539063 19.51917969 -1.13671875 18.27539062 C-1.13091797 16.37563477 -1.13091797 16.37563477 -1.125 14.4375 C-1.12886719 13.16712891 -1.13273438 11.89675781 -1.13671875 10.58789062 C-1.13542969 9.38197266 -1.13414062 8.17605469 -1.1328125 6.93359375 C-1.13168457 5.82040771 -1.13055664 4.70722168 -1.12939453 3.56030273 C-1 1 -1 1 0 0 Z " fill="#F9B745" transform="translate(183,7)"/>
<path d="M0 0 C1.67542976 0.28604898 3.34385343 0.61781233 5 1 C5 1.66 5 2.32 5 3 C4.01 3 3.02 3 2 3 C2 9.6 2 16.2 2 23 C1.01 22.67 0.02 22.34 -1 22 C-1.02887814 18.52085059 -1.04675687 15.04173169 -1.0625 11.5625 C-1.07087891 10.56927734 -1.07925781 9.57605469 -1.08789062 8.55273438 C-1.09111328 7.60849609 -1.09433594 6.66425781 -1.09765625 5.69140625 C-1.10289307 4.81685791 -1.10812988 3.94230957 -1.11352539 3.04125977 C-1 1 -1 1 0 0 Z " fill="#EAA673" transform="translate(153,7)"/>
<path d="M0 0 C0.99 0.495 0.99 0.495 2 1 C2.4140625 3.50390625 2.4140625 3.50390625 2.625 6.5625 C2.69976562 7.57441406 2.77453125 8.58632812 2.8515625 9.62890625 C2.92503906 10.80259766 2.92503906 10.80259766 3 12 C3.66 11.01 4.32 10.02 5 9 C5.66 9 6.32 9 7 9 C7 8.34 7 7.68 7 7 C8.32 6.67 9.64 6.34 11 6 C10.67 7.32 10.34 8.64 10 10 C9.34 10 8.68 10 8 10 C8 10.99 8 11.98 8 13 C7.34 13 6.68 13 6 13 C5.67 14.65 5.34 16.3 5 18 C4.34 18 3.68 18 3 18 C3 17.34 3 16.68 3 16 C2.01 15.67 1.02 15.34 0 15 C0 10.05 0 5.1 0 0 Z " fill="#E3B071" transform="translate(186,7)"/>
<path d="M0 0 C1.65 0 3.3 0 5 0 C5.33 0.66 5.66 1.32 6 2 C5.01 2 4.02 2 3 2 C2.67 9.26 2.34 16.52 2 24 C0.35 23.67 -1.3 23.34 -3 23 C-3.33 21.35 -3.66 19.7 -4 18 C-3.34 18 -2.68 18 -2 18 C-1.67 18.66 -1.34 19.32 -1 20 C-0.67 13.4 -0.34 6.8 0 0 Z " fill="#EDC882" transform="translate(171,7)"/>
<path d="M0 0 C1.65 0.33 3.3 0.66 5 1 C4.67 6.94 4.34 12.88 4 19 C3.67 19 3.34 19 3 19 C2.67 14.05 2.34 9.1 2 4 C2.66 4 3.32 4 4 4 C4 3.34 4 2.68 4 2 C3.01 2.33 2.02 2.66 1 3 C0.67 12.57 0.34 22.14 0 32 C-0.33 32 -0.66 32 -1 32 C-1.02465504 27.60343827 -1.04283842 23.2069128 -1.05493164 18.81030273 C-1.05997121 17.31355082 -1.06680287 15.81680384 -1.07543945 14.32006836 C-1.08752159 12.17300193 -1.09323191 10.02600038 -1.09765625 7.87890625 C-1.10289307 6.5854126 -1.10812988 5.29191895 -1.11352539 3.95922852 C-1 1 -1 1 0 0 Z " fill="#FBD7AD" transform="translate(141,7)"/>
<path d="M0 0 C1.65 0.33 3.3 0.66 5 1 C5 4.96 5 8.92 5 13 C4.01 12.01 3.02 11.02 2 10 C1.67 12.31 1.34 14.62 1 17 C0.34 17 -0.32 17 -1 17 C-1.02684679 14.35409986 -1.04676357 11.70846904 -1.0625 9.0625 C-1.07087891 8.30775391 -1.07925781 7.55300781 -1.08789062 6.77539062 C-1.09652441 4.85005687 -1.05224333 2.92464419 -1 1 C-0.67 0.67 -0.34 0.34 0 0 Z " fill="#5B7AE8" transform="translate(61,7)"/>
<path d="M0 0 C0.99 0 1.98 0 3 0 C3 6.6 3 13.2 3 20 C1.68 19.67 0.36 19.34 -1 19 C-1.33 19.66 -1.66 20.32 -2 21 C-1.84660156 20.34644531 -1.69320312 19.69289063 -1.53515625 19.01953125 C-0.86620406 15.24507841 -0.64592703 11.51094004 -0.4375 7.6875 C-0.39431641 6.94693359 -0.35113281 6.20636719 -0.30664062 5.44335938 C-0.20129568 3.62908536 -0.10021684 1.8145645 0 0 Z " fill="#3967D0" transform="translate(50,8)"/>
<path d="M0 0 C0.66 1.32 1.32 2.64 2 4 C-4.6 4 -11.2 4 -18 4 C-18.33 3.01 -18.66 2.02 -19 1 C-12.73 0.67 -6.46 0.34 0 0 Z " fill="#2E6BE4" transform="translate(110,37)"/>
<path d="M0 0 C1.65 0 3.3 0 5 0 C5 7.92 5 15.84 5 24 C2 24 2 24 0 23 C-0.33 23.66 -0.66 24.32 -1 25 C-0.67 23.35 -0.34 21.7 0 20 C1.32 20.33 2.64 20.66 4 21 C3.83250244 20.42024414 3.66500488 19.84048828 3.49243164 19.24316406 C2.72464619 15.74568625 3.16544428 12.28985149 3.4375 8.75 C3.51581055 7.63238281 3.51581055 7.63238281 3.59570312 6.4921875 C3.7248217 4.66105139 3.86165114 2.83046187 4 1 C3.01 1 2.02 1 1 1 C1 6.28 1 11.56 1 17 C0.67 17 0.34 17 0 17 C0 11.39 0 5.78 0 0 Z " fill="#6F8DDE" transform="translate(49,7)"/>
<path d="M0 0 C0.99 0 1.98 0 3 0 C3 6.93 3 13.86 3 21 C2.01 20.67 1.02 20.34 0 20 C0 13.4 0 6.8 0 0 Z " fill="#EBD184" transform="translate(174,10)"/>
<path d="M0 0 C0.80179688 0.00451172 1.60359375 0.00902344 2.4296875 0.01367188 C4.41149006 0.02546832 6.39325433 0.04340395 8.375 0.0625 C8.705 1.0525 9.035 2.0425 9.375 3.0625 C3.105 3.0625 -3.165 3.0625 -9.625 3.0625 C-9.955 2.4025 -10.285 1.7425 -10.625 1.0625 C-7.31505287 -0.59247356 -3.63377 -0.03834335 0 0 Z " fill="#2664E1" transform="translate(11.625,37.9375)"/>
<path d="M0 0 C1.86785156 0.01353516 1.86785156 0.01353516 3.7734375 0.02734375 C5.18496094 0.04474609 5.18496094 0.04474609 6.625 0.0625 C7.1875 2 7.1875 2 7.625 4.0625 C6.625 5.0625 6.625 5.0625 4.0625 5.125 C2.8559375 5.0940625 2.8559375 5.0940625 1.625 5.0625 C1.295 4.0725 0.965 3.0825 0.625 2.0625 C-3.995 2.0625 -8.615 2.0625 -13.375 2.0625 C-13.375 1.7325 -13.375 1.4025 -13.375 1.0625 C-8.85684719 0.17972245 -4.59987306 -0.04339503 0 0 Z " fill="#3777E7" transform="translate(19.375,35.9375)"/>
<path d="M0 0 C0.33 0 0.66 0 1 0 C1 5.94 1 11.88 1 18 C0.34 18 -0.32 18 -1 18 C-2.50156874 14.99686252 -2.09281204 12.20932478 -2.0625 8.875 C-2.05347656 7.59367187 -2.04445313 6.31234375 -2.03515625 4.9921875 C-2.02355469 4.00476563 -2.01195313 3.01734375 -2 2 C-1.34 2 -0.68 2 0 2 C0 1.34 0 0.68 0 0 Z M-4 15 C-3.01 15.495 -3.01 15.495 -2 16 C-2 16.66 -2 17.32 -2 18 C-2.66 18 -3.32 18 -4 18 C-4 17.01 -4 16.02 -4 15 Z " fill="#2EA8F7" transform="translate(33,9)"/>
<path d="M0 0 C3.21043882 1.38188453 5.04936365 2.92421903 7.25 5.625 C7.77078125 6.25664063 8.2915625 6.88828125 8.828125 7.5390625 C9.40820312 8.26222656 9.40820312 8.26222656 10 9 C2.89006342 8.7589852 2.89006342 8.7589852 0.35546875 6.59765625 C-1 4.9375 -1 4.9375 -3 2 C-2.34 2 -1.68 2 -1 2 C-0.67 1.34 -0.34 0.68 0 0 Z " fill="#3D71CC" transform="translate(73,27)"/>
<path d="M0 0 C0.99 0.33 1.98 0.66 3 1 C3.125 8.75 3.125 8.75 2 11 C0.35 10.67 -1.3 10.34 -3 10 C-3.33 8.68 -3.66 7.36 -4 6 C-3.01 5.67 -2.02 5.34 -1 5 C-0.67 3.35 -0.34 1.7 0 0 Z " fill="#E4B55D" transform="translate(174,30)"/>
<path d="M0 0 C2.45840605 -0.02691685 4.91651882 -0.04679802 7.375 -0.0625 C8.07367188 -0.07087891 8.77234375 -0.07925781 9.4921875 -0.08789062 C14.7734375 -0.11328125 14.7734375 -0.11328125 17 1 C16.34 2.32 15.68 3.64 15 5 C12.36 4.67 9.72 4.34 7 4 C7 3.01 7 2.02 7 1 C4.69 1 2.38 1 0 1 C0 0.67 0 0.34 0 0 Z " fill="#E8BD80" transform="translate(121,36)"/>
<path d="M0 0 C0.33 0 0.66 0 1 0 C1.33 2.64 1.66 5.28 2 8 C2.66 7.67 3.32 7.34 4 7 C4.33 9.64 4.66 12.28 5 15 C2.525 16.485 2.525 16.485 0 18 C0 12.06 0 6.12 0 0 Z " fill="#EFCB67" transform="translate(116,13)"/>
<path d="M0 0 C2.475 0.495 2.475 0.495 5 1 C4.2265625 2.0828125 4.2265625 2.0828125 3.4375 3.1875 C1.70399499 6.57914023 2.08045913 7.40543115 3 11 C3.09976111 13.67359767 3.04536803 16.32328603 3 19 C2.01 18.67 1.02 18.34 0 18 C0 12.06 0 6.12 0 0 Z " fill="#EEB960" transform="translate(155,10)"/>
<path d="M0 0 C0.99 0.33 1.98 0.66 3 1 C4.33157895 6.44736842 4.33157895 6.44736842 2.875 8.875 C1 10 1 10 -4 10 C-2.68 6.7 -1.36 3.4 0 0 Z " fill="#3A6DD6" transform="translate(95,10)"/>
<path d="M0 0 C3 1 3 1 4.6875 4.0625 C5.120625 5.031875 5.55375 6.00125 6 7 C5.34 7 4.68 7 4 7 C4 6.34 4 5.68 4 5 C3.34 5 2.68 5 2 5 C2.33 6.32 2.66 7.64 3 9 C0 9 0 9 -2 8 C-1.125 1.125 -1.125 1.125 0 0 Z " fill="#E7BC6B" transform="translate(158,12)"/>
<path d="M0 0 C0.99 0.33 1.98 0.66 3 1 C4.1875 4.0625 4.1875 4.0625 5 7 C2.525 8.485 2.525 8.485 0 10 C-1.76462683 6.91190305 -2 5.76687864 -2 2 C-1.34 2 -0.68 2 0 2 C0 1.34 0 0.68 0 0 Z " fill="#456CBF" transform="translate(106,25)"/>
<path d="M0 0 C1.485 0.99 1.485 0.99 3 2 C3.29296875 5.2578125 3.29296875 5.2578125 3.1875 9.125 C3.16042969 10.40632813 3.13335937 11.68765625 3.10546875 13.0078125 C3.07066406 13.99523438 3.03585938 14.98265625 3 16 C2.34 16 1.68 16 1 16 C-0.14077657 12.57767028 -0.09815117 9.91326783 -0.0625 6.3125 C-0.05347656 5.13300781 -0.04445312 3.95351563 -0.03515625 2.73828125 C-0.02355469 1.83464844 -0.01195312 0.93101563 0 0 Z " fill="#53ADED" transform="translate(63,25)"/>
<path d="M0 0 C0.721875 0.268125 1.44375 0.53625 2.1875 0.8125 C2 2.625 2 2.625 1.1875 4.8125 C-1.375 6.5625 -1.375 6.5625 -3.8125 7.8125 C-4.1425 6.8225 -4.4725 5.8325 -4.8125 4.8125 C-5.8025 4.8125 -6.7925 4.8125 -7.8125 4.8125 C-3.50480769 -0.23365385 -3.50480769 -0.23365385 0 0 Z " fill="#E2BC86" transform="translate(203.8125,7.1875)"/>
<path d="M0 0 C0.33 0 0.66 0 1 0 C1 4.95 1 9.9 1 15 C-0.32 15.33 -1.64 15.66 -3 16 C-3.66 15.34 -4.32 14.68 -5 14 C-4.625 11.875 -4.625 11.875 -4 10 C-3.01 10 -2.02 10 -1 10 C-0.67 6.7 -0.34 3.4 0 0 Z " fill="#E0A879" transform="translate(187,25)"/>
<path d="M0 0 C0.33 0 0.66 0 1 0 C1.33 6.27 1.66 12.54 2 19 C2.99 19.33 3.98 19.66 5 20 C4.67 20.99 4.34 21.98 4 23 C2.68 22.67 1.36 22.34 0 22 C0 14.74 0 7.48 0 0 Z " fill="#EAB65B" transform="translate(141,18)"/>
<path d="M0 0 C2.97 0.33 5.94 0.66 9 1 C9 2.65 9 4.3 9 6 C5.32579134 5.69381595 4.21864487 5.24228216 1.6875 2.4375 C1.130625 1.633125 0.57375 0.82875 0 0 Z " fill="#2B57D6" transform="translate(75,35)"/>
<path d="M0 0 C0.33 0 0.66 0 1 0 C1.3077917 3.13837611 1.27813784 4.59343628 -0.53125 7.23828125 C-1.1809375 7.92277344 -1.830625 8.60726563 -2.5 9.3125 C-3.1496875 10.00988281 -3.799375 10.70726562 -4.46875 11.42578125 C-4.9740625 11.94527344 -5.479375 12.46476562 -6 13 C-6.33 11.68 -6.66 10.36 -7 9 C-6.34 9 -5.68 9 -5 9 C-5 8.01 -5 7.02 -5 6 C-4.34 6 -3.68 6 -3 6 C-2.814375 5.071875 -2.814375 5.071875 -2.625 4.125 C-2 2 -2 2 0 0 Z " fill="#E6B976" transform="translate(199,11)"/>
<path d="M0 0 C0.33 0 0.66 0 1 0 C1 6.93 1 13.86 1 21 C0.67 19.68 0.34 18.36 0 17 C-0.66 17 -1.32 17 -2 17 C-2 14.36 -2 11.72 -2 9 C-1.67 9 -1.34 9 -1 9 C-0.67 6.03 -0.34 3.06 0 0 Z " fill="#FCDF2D" transform="translate(145,13)"/>
<path d="M0 0 C0.99 0.495 0.99 0.495 2 1 C2.37890625 3.43359375 2.37890625 3.43359375 2.5625 6.4375 C2.73109366 10.36535217 2.73109366 10.36535217 4 14 C3.34 14 2.68 14 2 14 C1.67 14.66 1.34 15.32 1 16 C0 15 0 15 -0.09765625 11.62109375 C-0.09098369 10.22652923 -0.07902532 8.83198257 -0.0625 7.4375 C-0.05798828 6.72658203 -0.05347656 6.01566406 -0.04882812 5.28320312 C-0.03700864 3.52209987 -0.01907263 1.76103964 0 0 Z " fill="#CEB18A" transform="translate(186,7)"/>
<path d="M0 0 C1.32 0 2.64 0 4 0 C4.66 1.98 5.32 3.96 6 6 C5.01 6.33 4.02 6.66 3 7 C2.26676204 9.01508358 2.26676204 9.01508358 2 11 C1.47007308 9.54494642 0.9513211 8.08581873 0.4375 6.625 C0.14746094 5.81289062 -0.14257812 5.00078125 -0.44140625 4.1640625 C-1 2 -1 2 0 0 Z " fill="#5D85DC" transform="translate(97,7)"/>
<path d="M0 0 C2.375 -0.1875 2.375 -0.1875 5 0 C5.66 0.99 6.32 1.98 7 3 C6.01 4.485 6.01 4.485 5 6 C3.68 5.67 2.36 5.34 1 5 C0.67 3.35 0.34 1.7 0 0 Z " fill="#2854D9" transform="translate(67,24)"/>
<path d="M0 0 C1.32 0 2.64 0 4 0 C3.67 1.32 3.34 2.64 3 4 C2.34 4 1.68 4 1 4 C1 7.96 1 11.92 1 16 C0.67 16 0.34 16 0 16 C-0.19389096 13.5211787 -0.38040123 11.04219069 -0.5625 8.5625 C-0.61857422 7.85544922 -0.67464844 7.14839844 -0.73242188 6.41992188 C-0.86190993 4.61572163 -0.93521608 2.80768048 -1 1 C-0.67 0.67 -0.34 0.34 0 0 Z " fill="#DDBF85" transform="translate(117,7)"/>
<path d="M0 0 C2.5654594 2.5654594 2.54046087 4.47686668 3 8 C3.66 8 4.32 8 5 8 C4.67 8.99 4.34 9.98 4 11 C2.68 10.34 1.36 9.68 0 9 C0 6.03 0 3.06 0 0 Z " fill="#D8A271" transform="translate(152,30)"/>
<path d="M0 0 C0.33 0.66 0.66 1.32 1 2 C3.02463255 2.65213292 3.02463255 2.65213292 5 3 C5 4.65 5 6.3 5 8 C4.01 8 3.02 8 2 8 C1.67 8.66 1.34 9.32 1 10 C0.67 6.7 0.34 3.4 0 0 Z " fill="#3A64D0" transform="translate(99,11)"/>
<path d="M0 0 C1.32 0.66 2.64 1.32 4 2 C3.34 3.65 2.68 5.3 2 7 C1.67 6.34 1.34 5.68 1 5 C0.01 5.33 -0.98 5.66 -2 6 C-2 4.68 -2 3.36 -2 2 C-1.34 2 -0.68 2 0 2 C0 1.34 0 0.68 0 0 Z " fill="#3C72D7" transform="translate(49,30)"/>
<path d="M0 0 C0.66 0.33 1.32 0.66 2 1 C2 4.96 2 8.92 2 13 C-1 10 -1 10 -1.07421875 7.51953125 C-0.94660156 6.62621094 -0.81898437 5.73289062 -0.6875 4.8125 C-0.56761719 3.91144531 -0.44773438 3.01039062 -0.32421875 2.08203125 C-0.21722656 1.39496094 -0.11023437 0.70789063 0 0 Z " fill="#8EBDF1" transform="translate(64,7)"/>
<path d="M0 0 C0.33 1.32 0.66 2.64 1 4 C1.66 4 2.32 4 3 4 C2.67 5.32 2.34 6.64 2 8 C0.68 7.67 -0.64 7.34 -2 7 C-1.125 2.25 -1.125 2.25 0 0 Z " fill="#4784E2" transform="translate(86,33)"/>
<path d="M0 0 C0.66 0 1.32 0 2 0 C2 0.66 2 1.32 2 2 C2.99 2.33 3.98 2.66 5 3 C5 4.65 5 6.3 5 8 C2.5 6.8125 2.5 6.8125 0 5 C-0.3125 2.3125 -0.3125 2.3125 0 0 Z " fill="#E6AC68" transform="translate(160,17)"/>
<path d="M0 0 C0.66 0.33 1.32 0.66 2 1 C2 3.64 2 6.28 2 9 C1.01 8.67 0.02 8.34 -1 8 C-1.04241723 5.66705225 -1.04092937 3.33297433 -1 1 C-0.67 0.67 -0.34 0.34 0 0 Z " fill="#F7D145" transform="translate(156,20)"/>
<path d="M0 0 C-0.66 1.65 -1.32 3.3 -2 5 C-2.66 4.34 -3.32 3.68 -4 3 C-4.99 3.33 -5.98 3.66 -7 4 C-6.6875 2.0625 -6.6875 2.0625 -6 0 C-3 -1 -3 -1 0 0 Z " fill="#5888DA" transform="translate(97,20)"/>
<path d="M0 0 C0.99 0 1.98 0 3 0 C3 2.31 3 4.62 3 7 C2.01 6.67 1.02 6.34 0 6 C0 4.02 0 2.04 0 0 Z " fill="#F8D370" transform="translate(155,32)"/>
<path d="M0 0 C0.33 0 0.66 0 1 0 C1.33 3.3 1.66 6.6 2 10 C1.01 10 0.02 10 -1 10 C-1.33 8.68 -1.66 7.36 -2 6 C-1.34 6 -0.68 6 0 6 C0 4.02 0 2.04 0 0 Z " fill="#2776D4" transform="translate(62,31)"/>
<path d="M0 0 C2 3.75 2 3.75 2 6 C0.35 6 -1.3 6 -3 6 C-2.67 4.68 -2.34 3.36 -2 2 C-1.34 2 -0.68 2 0 2 C0 1.34 0 0.68 0 0 Z " fill="#3D67BF" transform="translate(93,21)"/>
<path d="M0 0 C1.5625 1.125 1.5625 1.125 3 3 C2.6875 6.1875 2.6875 6.1875 2 9 C1.34 9 0.68 9 0 9 C-0.66 7.35 -1.32 5.7 -2 4 C-1.34 4 -0.68 4 0 4 C0 2.68 0 1.36 0 0 Z " fill="#E5BD81" transform="translate(164,20)"/>
<path d="M0 0 C0.66 1.32 1.32 2.64 2 4 C1.34 4 0.68 4 0 4 C-0.66 5.32 -1.32 6.64 -2 8 C-2.33 6.35 -2.66 4.7 -3 3 C-2.01 2.67 -1.02 2.34 0 2 C0 1.34 0 0.68 0 0 Z " fill="#3576EB" transform="translate(31,25)"/>
<path d="M0 0 C2.26185454 2.26185454 3.03921617 3.96983561 4 7 C3.67 7.99 3.34 8.98 3 10 C3 9.34 3 8.68 3 8 C2.34 8 1.68 8 1 8 C-0.35439668 5.29120665 -0.06501451 2.99066732 0 0 Z " fill="#7D98D2" transform="translate(104,16)"/>
<path d="M0 0 C1.2065625 0.0309375 1.2065625 0.0309375 2.4375 0.0625 C2.7675 0.7225 3.0975 1.3825 3.4375 2.0625 C3.1075 2.7225 2.7775 3.3825 2.4375 4.0625 C1.4475 4.0625 0.4575 4.0625 -0.5625 4.0625 C-0.5625 3.4025 -0.5625 2.7425 -0.5625 2.0625 C-1.5525 1.7325 -2.5425 1.4025 -3.5625 1.0625 C-2.5625 0.0625 -2.5625 0.0625 0 0 Z " fill="#4069D4" transform="translate(80.5625,6.9375)"/>
<path d="M0 0 C2.375 0.3125 2.375 0.3125 5 1 C5.66 1.99 6.32 2.98 7 4 C4.36 3.67 1.72 3.34 -1 3 C-0.67 2.01 -0.34 1.02 0 0 Z " fill="#3289CF" transform="translate(76,32)"/>
<path d="M0 0 C1.9375 0.3125 1.9375 0.3125 4 1 C4.33 1.99 4.66 2.98 5 4 C2 4 2 4 0 3 C-0.33 3.66 -0.66 4.32 -1 5 C-0.67 3.35 -0.34 1.7 0 0 Z " fill="#4185EE" transform="translate(49,27)"/>
<path d="M0 0 C1.32 0.33 2.64 0.66 4 1 C4.33 2.32 4.66 3.64 5 5 C2 5 2 5 0 4 C0 2.68 0 1.36 0 0 Z " fill="#F3CEA2" transform="translate(156,16)"/>
<path d="M0 0 C0.66 0.33 1.32 0.66 2 1 C1.67 1.99 1.34 2.98 1 4 C0.34 4 -0.32 4 -1 4 C-1 4.66 -1 5.32 -1 6 C-1.66 6 -2.32 6 -3 6 C-3.33 5.01 -3.66 4.02 -4 3 C-3.34 3 -2.68 3 -2 3 C-2 2.34 -2 1.68 -2 1 C-1.34 0.67 -0.68 0.34 0 0 Z " fill="#C99C5C" transform="translate(195,13)"/>
<path d="M0 0 C0.99 0.495 0.99 0.495 2 1 C1.67 1.66 1.34 2.32 1 3 C0.67 2.01 0.34 1.02 0 0 Z " fill="#FFFFFF" transform="translate(164,7)"/>
<path d="" fill="#FFFFFF" transform="translate(0,0)"/>
</svg>
