<?xml version="1.0" encoding="UTF-8"?>
<svg version="1.1" xmlns="http://www.w3.org/2000/svg" width="190"  fill="#f5b460" height="229">
<path d="M0 0 C0.53625 0.52722656 1.0725 1.05445313 1.625 1.59765625 C2.181875 2.12230469 2.73875 2.64695312 3.3125 3.1875 C6.39080675 6.64143347 6.07398761 10.38872979 6.0390625 14.82421875 C5.48087627 18.64726783 4.03259523 20.56530754 1.42578125 23.3203125 C-3.58268279 27.04678358 -9.48803142 27.40754717 -15.5 28.22265625 C-17.29460614 28.47155255 -19.08889417 28.72275628 -20.8828125 28.9765625 C-21.67316895 29.08427979 -22.46352539 29.19199707 -23.27783203 29.30297852 C-25.55819842 29.63652347 -25.55819842 29.63652347 -28.375 30.66015625 C-27.08529297 31.65982422 -27.08529297 31.65982422 -25.76953125 32.6796875 C-3.77926916 49.79507552 18.56729392 68.2688999 35.77734375 90.3203125 C37.53202324 92.5424119 39.38110736 94.59167102 41.3125 96.66015625 C63.58557182 121.50661087 104.16328976 175.21178652 102.9765625 210.328125 C102.28247311 214.93225128 99.88316804 217.55000798 96.5 220.53515625 C91.00245906 222.68636792 85.74297794 222.5393169 80.3125 220.28515625 C74.97883417 215.07552916 72.787585 208.06964734 69.98535156 201.28833008 C56.93912438 169.80089228 39.69744152 140.6795795 17.625 114.66015625 C16.70755059 113.55794273 15.79092797 112.45504064 14.875 111.3515625 C10.51664619 106.1221315 6.14224726 100.99073259 1.23046875 96.265625 C-0.55803851 94.47711774 -2.17724333 92.58939165 -3.8125 90.66015625 C-6.69125915 87.32920264 -9.74639677 84.45992705 -13.10546875 81.62109375 C-15.77298084 79.31628985 -18.31218711 76.89328331 -20.875 74.47265625 C-27.89762975 67.91666556 -35.61456011 62.30321723 -43.375 56.66015625 C-43.16294922 57.27947021 -42.95089844 57.89878418 -42.73242188 58.53686523 C-41.76583907 61.38589461 -40.82035493 64.24151635 -39.875 67.09765625 C-39.54113281 68.07154297 -39.20726562 69.04542969 -38.86328125 70.04882812 C-36.63586888 76.84470872 -34.64845821 83.57097833 -37.5625 90.47265625 C-40.08950505 93.52248993 -42.82418566 95.88474908 -46.375 97.66015625 C-51.52581452 98.09666596 -55.37877058 98.02311657 -59.74211121 95.06315613 C-65.66613362 89.97315688 -67.46080394 79.65180108 -69.66796875 72.515625 C-70.05946609 71.26888504 -70.45096344 70.02214508 -70.85432434 68.73762512 C-71.88733431 65.44781268 -72.91230958 62.1555529 -73.93548584 58.8626709 C-74.9802146 55.50526066 -76.032346 52.15017292 -77.08398438 48.79492188 C-78.92818381 42.90884959 -80.76576891 37.02073924 -82.59831238 31.13102722 C-83.17327967 29.30188773 -83.76867182 27.4791408 -84.375 25.66015625 C-84.90642156 21.08644609 -84.7904481 17.57760414 -82.875 13.34765625 C-76.32316719 6.30443598 -67.64935646 5.55366333 -58.56640625 4.265625 C-57.23163585 4.06803962 -55.89699724 3.86956211 -54.56248474 3.67024231 C-51.77748097 3.25741248 -48.99130239 2.85425379 -46.20385742 2.45825195 C-42.65317481 1.95319095 -39.10626401 1.42573311 -35.55992222 0.89113903 C-32.80800389 0.47857857 -30.05454109 0.07720962 -27.30048943 -0.32083702 C-25.36277211 -0.60263218 -23.42630558 -0.8929862 -21.48988342 -1.18354797 C-5.95506869 -3.35952066 -5.95506869 -3.35952066 0 0 Z " fill="#f5b460" transform="translate(84.375,2.33984375)"/>
</svg>
